<svg xmlns="http://www.w3.org/2000/svg" viewBox="0 0 332 96" width="332" height="96">
  <path d="M 46.0,19.0 Q 46.1,13.5 46.0,8.0" stroke="#161A17" stroke-width="3.4" fill="none" stroke-linecap="round"/>
  <path d="M 63.0,24.5 Q 65.2,21.8 67.2,18.9" stroke="#161A17" stroke-width="3.4" fill="none" stroke-linecap="round"/>
  <path d="M 46.0,77.0 Q 45.9,80.5 46.0,84.0" stroke="#161A17" stroke-width="3.4" fill="none" stroke-linecap="round"/>
  <path d="M 29.0,71.5 Q 25.6,75.9 22.5,80.4" stroke="#161A17" stroke-width="3.4" fill="none" stroke-linecap="round"/>
  <path d="M 18.4,57.0 Q 15.1,57.9 11.8,59.1" stroke="#161A17" stroke-width="3.4" fill="none" stroke-linecap="round"/>
  <path d="M 18.4,39.0 Q 13.2,37.2 8.0,35.6" stroke="#161A17" stroke-width="3.4" fill="none" stroke-linecap="round"/>
  <path d="M 29.0,24.5 Q 27.0,21.6 24.8,18.9" stroke="#161A17" stroke-width="3.4" fill="none" stroke-linecap="round"/>
  <path d="M 62.0,26.9 L 62.7,26.7 L 63.4,26.6 L 64.1,26.5 L 64.8,26.3 L 65.5,26.2 L 66.2,26.1 L 66.9,26.1 L 67.6,26.0 L 68.3,26.0 L 69.0,26.0 L 69.7,26.0 L 70.4,26.0 L 71.1,26.1 L 71.8,26.1 L 72.5,26.2 L 73.2,26.3 L 73.9,26.5 L 74.6,26.6 L 75.3,26.7 L 76.0,26.9 L 76.7,27.1 L 77.3,27.3 L 78.0,27.5 L 78.7,27.8 L 79.3,28.1 L 80.0,28.3 L 80.6,28.6 L 81.3,28.9 L 81.9,29.3 L 82.5,29.6 L 83.1,30.0 L 83.7,30.4 L 84.3,30.7 L 84.9,31.2 L 85.4,31.6 L 86.0,32.0 L 86.5,32.5 L 87.1,32.9 L 87.6,33.4 L 88.1,33.9 L 88.6,34.4 L 89.1,34.9 L 89.5,35.5 L 90.0,36.0 L 90.4,36.6 L 90.8,37.1 L 91.3,37.7 L 91.6,38.3 L 92.0,38.9 L 92.4,39.5 L 92.7,40.1 L 93.1,40.7 L 93.4,41.4 L 93.7,42.0 L 93.9,42.7 L 94.2,43.3 L 94.5,44.0 L 94.7,44.7 L 94.9,45.3 L 95.1,46.0 L 95.3,46.7 L 95.4,47.4 L 95.5,48.1 L 95.7,48.8 L 95.8,49.5 L 95.9,50.2 L 95.9,50.9 L 96.0,51.6 L 96.0,52.3 L 96.0,53.0 L 96.0,53.7 L 96.0,54.4 L 95.9,55.1 L 95.9,55.8 L 95.8,56.5 L 95.7,57.2 L 95.5,57.9 L 95.4,58.6 L 95.3,59.3 L 95.1,60.0 L 94.9,60.7 L 94.7,61.3 L 94.5,62.0 L 94.2,62.7 L 93.9,63.3 L 93.7,64.0 L 93.4,64.6 L 93.1,65.3 L 92.7,65.9 L 92.4,66.5 L 92.0,67.1 L 91.6,67.7 L 91.3,68.3 L 90.8,68.9 L 90.4,69.4 L 90.0,70.0 L 89.5,70.5 L 89.1,71.1 L 88.6,71.6 L 88.1,72.1 L 87.6,72.6 L 87.1,73.1 L 86.5,73.5 L 86.0,74.0 L 85.4,74.4 L 84.9,74.8 L 84.3,75.3 L 83.7,75.6 L 83.1,76.0 L 82.5,76.4 L 81.9,76.7 L 81.3,77.1 L 80.6,77.4 L 80.0,77.7 L 79.3,77.9 L 78.7,78.2 L 78.0,78.5 L 77.3,78.7 L 76.7,78.9 L 76.0,79.1 L 75.3,79.3 L 74.6,79.4 L 73.9,79.5 L 73.2,79.7 L 72.5,79.8 L 71.8,79.9 L 71.1,79.9 L 70.4,80.0 L 69.7,80.0 L 69.0,80.0 L 68.3,80.0 L 67.6,80.0 L 66.9,79.9 L 66.2,79.9 L 65.5,79.8 L 64.8,79.7 L 64.1,79.5 L 63.4,79.4 L 62.7,79.3 L 62.0,79.1 L 61.3,78.9 L 60.7,78.7 L 60.0,78.5 L 59.3,78.2 L 58.7,77.9 L 58.0,77.7 L 57.4,77.4 L 56.7,77.1 L 56.1,76.7 L 55.5,76.4 L 54.9,76.0 L 54.3,75.6 L 53.7,75.3 L 53.1,74.8 L 52.6,74.4 L 52.0,74.0 L 51.5,73.5 L 51.4,73.4 L 52.1,73.3 L 52.7,73.1 L 53.4,72.9 L 54.0,72.7 L 54.7,72.5 L 55.3,72.3 L 55.9,72.0 L 56.6,71.8 L 57.2,71.5 L 57.8,71.2 L 58.4,70.8 L 59.0,70.5 L 59.6,70.2 L 60.2,69.8 L 60.7,69.4 L 61.3,69.0 L 61.8,68.6 L 62.4,68.2 L 62.9,67.8 L 63.4,67.3 L 63.9,66.9 L 64.4,66.4 L 64.9,65.9 L 65.3,65.4 L 65.8,64.9 L 66.2,64.4 L 66.6,63.8 L 67.0,63.3 L 67.4,62.7 L 67.8,62.2 L 68.2,61.6 L 68.5,61.0 L 68.8,60.4 L 69.2,59.8 L 69.5,59.2 L 69.8,58.6 L 70.0,57.9 L 70.3,57.3 L 70.5,56.7 L 70.7,56.0 L 70.9,55.4 L 71.1,54.7 L 71.3,54.1 L 71.4,53.4 L 71.6,52.7 L 71.7,52.1 L 71.8,51.4 L 71.9,50.7 L 71.9,50.0 L 72.0,49.4 L 72.0,48.7 L 72.0,48.0 L 72.0,47.3 L 72.0,46.6 L 71.9,46.0 L 71.9,45.3 L 71.8,44.6 L 71.7,43.9 L 71.6,43.3 L 71.4,42.6 L 71.3,41.9 L 71.1,41.3 L 70.9,40.6 L 70.7,40.0 L 70.5,39.3 L 70.3,38.7 L 70.0,38.1 L 69.8,37.4 L 69.5,36.8 L 69.2,36.2 L 68.8,35.6 L 68.5,35.0 L 68.2,34.4 L 67.8,33.8 L 67.4,33.3 L 67.0,32.7 L 66.6,32.2 L 66.2,31.6 L 65.8,31.1 L 65.3,30.6 L 64.9,30.1 L 64.4,29.6 L 63.9,29.1 L 63.4,28.7 L 62.9,28.2 L 62.4,27.8 L 61.8,27.4 Z" fill="#161A17"/>
  <polyline points="84,38 90,44 90,54 84,60 84,66" stroke="#F5F6F3" stroke-width="2.2"
            fill="none" stroke-linecap="round" stroke-linejoin="round"/>
  <circle cx="84" cy="38" r="2.8" fill="#F5F6F3"/>
  <circle cx="90" cy="54" r="2.8" fill="#F5F6F3"/>
  <circle cx="84" cy="66" r="2.8" fill="#F5F6F3"/>
  <circle cx="46" cy="48" r="23" fill="none" stroke="#161A17" stroke-width="4"/>
  <text x="122" y="54" font-family="'IBM Plex Mono', monospace" font-size="22"
        font-weight="500" letter-spacing="2.5" fill="#161A17">PUERARI·LABS</text>
  <text x="123" y="75" font-family="'IBM Plex Mono', monospace" font-size="10.5"
        letter-spacing="2" fill="#161A17">puerarilabs.com</text>
</svg>