<?xml version="1.0" standalone="no"?>
<!DOCTYPE svg PUBLIC "-//W3C//DTD SVG 20010904//EN"
 "http://www.w3.org/TR/2001/REC-SVG-20010904/DTD/svg10.dtd">
<svg version="1.0" xmlns="http://www.w3.org/2000/svg"
 width="1313.000000pt" height="1469.000000pt" viewBox="0 0 1313.000000 1469.000000"
 preserveAspectRatio="xMidYMid meet">

<g transform="translate(0.000000,1469.000000) scale(0.100000,-0.100000)"
fill="#000000" stroke="none">
<path d="M6561 13547 c-1 -5 -8 -66 -17 -135 -8 -70 -21 -237 -27 -372 l-12
-244 -74 69 c-147 138 -236 271 -290 430 -34 101 -41 87 -12 -27 41 -161 116
-294 234 -415 39 -40 68 -73 64 -73 -16 0 -180 56 -242 82 -101 44 -225 129
-289 199 -58 65 -120 179 -132 244 -4 22 -9 35 -11 29 -8 -24 30 -153 69 -233
56 -117 158 -219 283 -283 50 -25 107 -51 128 -58 21 -6 36 -14 33 -17 -10
-11 -263 20 -354 42 -53 14 -133 43 -177 64 -131 66 -201 138 -251 258 -31 75
-31 38 0 -50 80 -226 285 -359 591 -384 61 -5 73 -8 52 -14 -69 -19 -258 -31
-400 -27 -178 6 -277 32 -367 95 -56 40 -114 114 -129 167 -5 17 -10 24 -10
15 -1 -9 8 -41 18 -71 50 -146 146 -228 321 -275 97 -26 336 -23 505 6 112 19
395 86 448 106 15 6 17 0 17 -51 0 -85 -40 -1635 -43 -1659 -2 -20 -11 -20
-382 -25 l-380 -5 -3 -24 c-2 -13 2 -28 10 -32 7 -5 382 -9 833 -9 451 0 826
4 833 9 8 4 12 19 10 32 l-3 24 -380 5 c-371 5 -380 5 -382 25 -3 24 -43 1574
-43 1659 0 51 2 57 18 51 48 -19 333 -87 447 -106 169 -29 408 -32 505 -6 173
47 271 130 321 274 24 71 24 104 0 41 -41 -103 -122 -171 -259 -215 -64 -21
-103 -26 -229 -31 -142 -4 -331 8 -400 27 -21 6 -9 9 52 14 242 20 440 118
535 267 31 49 80 176 80 208 0 10 -11 -9 -24 -41 -50 -120 -120 -192 -251
-258 -44 -21 -124 -50 -177 -64 -91 -22 -344 -53 -354 -42 -3 3 12 11 33 17
21 7 79 33 128 58 125 64 227 166 283 283 40 82 78 210 68 233 -2 6 -5 3 -5
-7 -2 -37 -42 -132 -81 -193 -92 -141 -256 -251 -483 -323 -53 -17 -100 -31
-104 -31 -3 0 25 33 63 73 39 39 85 93 102 118 72 106 133 257 147 365 5 43 2
38 -25 -41 -56 -161 -145 -292 -291 -430 l-74 -69 -7 174 c-8 191 -34 494 -48
550 -4 19 -8 31 -9 27z m-15 -784 c-8 -8 -36 5 -36 17 0 7 6 7 21 0 11 -7 18
-14 15 -17z"/>
<path d="M6101 13404 c0 -11 3 -14 6 -6 3 7 2 16 -1 19 -3 4 -6 -2 -5 -13z"/>
<path d="M7021 13404 c0 -11 3 -14 6 -6 3 7 2 16 -1 19 -3 4 -6 -2 -5 -13z"/>
<path d="M5751 9331 c-8 -14 -7 -30 4 -60 43 -123 60 -243 60 -426 0 -183 -18
-305 -60 -426 -19 -52 -6 -82 33 -77 23 3 30 11 45 58 47 147 61 248 61 445 0
197 -14 298 -61 445 -15 47 -22 55 -45 58 -18 2 -30 -3 -37 -17z"/>
<path d="M4877 8753 c-16 -15 -4 -47 43 -116 64 -95 97 -185 111 -305 13 -104
24 -128 58 -117 30 9 35 42 21 141 -18 138 -87 298 -163 382 -20 21 -56 29
-70 15z"/>
<path d="M6626 8743 c-2 -10 -7 -49 -11 -87 -13 -133 -55 -243 -131 -347 -19
-26 -34 -53 -34 -61 0 -19 20 -38 42 -38 40 0 151 190 182 313 23 89 31 204
16 222 -17 21 -57 19 -64 -2z"/>
<path d="M3822 8634 c-16 -29 -2 -48 78 -102 209 -141 363 -321 477 -559 51
-105 57 -114 81 -111 50 6 49 27 -10 150 -120 250 -287 443 -515 596 -66 45
-97 52 -111 26z"/>
<path d="M5628 8109 c-285 -23 -588 -129 -838 -294 -123 -81 -156 -107 -269
-218 -427 -421 -614 -1004 -512 -1599 67 -387 283 -774 576 -1030 548 -481
1313 -591 1970 -284 290 136 558 371 738 646 458 705 371 1626 -213 2234 -375
390 -906 589 -1452 545z m475 -128 c354 -72 656 -236 899 -488 300 -313 458
-683 474 -1113 15 -370 -79 -703 -281 -1005 -254 -379 -622 -628 -1078 -727
-89 -19 -132 -22 -332 -22 -202 0 -243 2 -335 22 -454 99 -827 350 -1081 730
-117 175 -192 350 -245 578 -27 113 -29 131 -28 354 0 207 2 247 22 340 98
450 349 822 727 1075 219 147 457 236 735 275 106 15 410 4 523 -19z"/>
<path d="M5635 7824 c-388 -56 -666 -186 -911 -428 -303 -301 -454 -661 -454
-1083 0 -414 149 -773 444 -1069 218 -218 456 -347 764 -417 82 -18 128 -21
302 -22 224 0 287 9 469 67 531 169 923 617 1027 1173 28 148 26 422 -5 565
-65 306 -208 569 -426 785 -117 116 -240 202 -390 276 -223 108 -384 148 -630
154 -88 2 -173 1 -190 -1z m406 -50 c608 -103 1094 -592 1205 -1209 24 -134
24 -365 0 -500 -50 -286 -187 -560 -384 -767 -225 -235 -492 -381 -817 -445
-137 -27 -406 -24 -547 5 -599 124 -1058 586 -1173 1182 -23 121 -30 315 -16
439 41 349 196 660 450 904 343 328 810 471 1282 391z"/>
<path d="M7315 7904 c-131 -10 -351 -48 -368 -63 -4 -4 34 -44 86 -89 154
-133 284 -288 384 -456 127 -214 200 -410 250 -674 23 -122 23 -492 0 -614
-78 -413 -237 -729 -510 -1015 -237 -248 -568 -443 -885 -523 l-42 -11 27 -23
c125 -103 384 -241 568 -301 229 -75 380 -99 620 -99 234 1 431 33 640 106 92
32 331 150 415 205 286 188 519 451 669 753 99 200 151 361 188 583 23 139 23
435 0 572 -27 163 -100 425 -118 425 -26 0 -59 -23 -65 -45 -8 -32 -22 -32
-30 0 -4 16 -18 31 -38 39 l-31 13 29 14 c16 7 34 27 41 43 l13 30 15 -31 c15
-29 44 -49 55 -38 3 2 -23 61 -56 129 -250 509 -728 888 -1287 1022 -150 36
-425 59 -570 48z m1350 -770 c23 -9 46 -60 40 -86 -5 -19 17 -45 125 -153
l130 -130 0 -183 0 -184 30 -28 c35 -33 38 -67 9 -104 -15 -20 -29 -26 -58
-26 -31 0 -45 -8 -94 -58 l-57 -57 120 -120 120 -120 0 -216 0 -216 25 -23
c51 -48 17 -130 -54 -130 -30 0 -45 -10 -103 -67 -58 -57 -68 -73 -68 -102 0
-46 -33 -81 -77 -81 -44 0 -73 30 -73 75 0 47 29 75 77 75 33 0 46 8 105 67
60 60 68 72 68 106 0 28 7 44 25 61 l25 23 0 204 0 204 -125 125 c-69 69 -125
129 -125 135 0 5 30 40 67 77 60 61 67 72 68 109 1 33 7 47 28 63 l27 22 0
169 0 170 -127 127 c-118 118 -131 128 -165 128 -42 0 -78 35 -78 77 0 49 64
86 115 67z m-364 -1810 l24 -12 -27 -11 c-14 -5 -29 -19 -33 -30 -6 -19 -8
-19 -39 12 l-33 32 22 12 c13 7 25 23 29 35 l6 23 14 -24 c7 -13 24 -30 37
-37z m698 -363 c29 -27 30 -30 12 -36 -11 -3 -23 -15 -26 -26 -6 -18 -9 -17
-36 12 -16 17 -29 32 -29 34 0 1 9 5 20 8 11 3 20 12 20 21 0 22 3 21 39 -13z"/>
<path d="M3531 7611 c-16 -29 7 -50 79 -67 108 -27 203 -79 290 -161 80 -75
111 -88 129 -54 30 55 -174 220 -341 275 -93 31 -143 34 -157 7z"/>
<path d="M2858 6881 c-58 -8 -73 -21 -64 -55 l6 -25 183 6 c142 4 204 2 282
-11 128 -21 275 -66 393 -122 74 -34 98 -41 113 -33 20 10 24 35 11 56 -21 33
-279 133 -427 165 -97 21 -407 33 -497 19z"/>
<path d="M3485 5996 c-78 -15 -160 -45 -220 -79 -44 -25 -54 -61 -23 -81 13
-8 31 -3 81 22 115 57 251 80 367 64 75 -11 100 -3 100 34 0 17 -8 27 -25 34
-45 17 -205 20 -280 6z"/>
<path d="M3880 5295 c-237 -66 -449 -188 -633 -364 -79 -76 -97 -99 -95 -119
2 -14 10 -30 20 -35 13 -9 34 6 116 85 196 186 432 317 665 369 65 14 93 40
76 71 -13 24 -43 22 -149 -7z"/>
<path d="M4389 4737 c-114 -79 -194 -169 -250 -281 -42 -84 -48 -116 -24 -136
27 -22 50 0 92 88 48 102 130 196 222 257 64 42 80 67 61 90 -19 23 -51 17
-101 -18z"/>
<path d="M5058 4409 c-25 -14 -131 -175 -181 -274 -88 -177 -141 -370 -154
-562 -5 -84 -4 -97 11 -109 19 -13 46 -8 58 10 4 6 8 34 8 63 0 79 37 276 70
375 40 120 108 253 187 366 35 52 62 100 59 107 -8 21 -39 34 -58 24z"/>
<path d="M5744 4255 c-34 -82 -46 -167 -41 -285 8 -188 55 -297 105 -246 14
14 13 23 -6 104 -28 113 -29 232 -2 337 24 94 25 111 4 119 -31 12 -45 5 -60
-29z"/>
</g>
</svg>
