<svg xmlns="http://www.w3.org/2000/svg" viewBox="0 0 420 470" width="420" height="470">
  <path d="M 210,62 Q 164.0,74.0 166.8,50.0 Q 164.0,78.2 210,64 Z M 210,62 Q 172.0,65.0 174.3,41.0 Q 172.0,69.2 210,64 Z M 210,62 Q 182.0,57.0 183.7,36.0 Q 182.0,61.2 210,64 Z M 210,62 Q 194.0,50.0 195.0,34.0 Q 194.0,54.2 210,64 Z M 210,62 Q 256.0,74.0 253.2,50.0 Q 256.0,78.2 210,64 Z M 210,62 Q 248.0,65.0 245.7,41.0 Q 248.0,69.2 210,64 Z M 210,62 Q 238.0,57.0 236.3,36.0 Q 238.0,61.2 210,64 Z M 210,62 Q 226.0,50.0 225.0,34.0 Q 226.0,54.2 210,64 Z M 208.4,62 Q 208,48 210,36 Q 212,48 211.6,62 Z" fill="#161A17"/>
  <path d="M 207.5,121 L 212.5,121 L 211,62 L 209,62 Z" fill="#161A17"/>
  <line x1="184" y1="121" x2="236" y2="121" stroke="#161A17" stroke-width="2.4" stroke-linecap="round"/>
  <path d="M 185.0,202.0 Q 190.0,187.0 185.0,172.0" stroke="#161A17" stroke-width="2.6" fill="none" stroke-linecap="round"/>
  <path d="M 207.6,206.0 Q 213.1,199.5 213.0,190.9" stroke="#161A17" stroke-width="2.6" fill="none" stroke-linecap="round"/>
  <path d="M 185.0,334.0 Q 182.0,342.0 185.0,350.0" stroke="#161A17" stroke-width="2.6" fill="none" stroke-linecap="round"/>
  <path d="M 162.4,330.0 Q 152.6,342.4 152.2,358.2" stroke="#161A17" stroke-width="2.6" fill="none" stroke-linecap="round"/>
  <path d="M 142.6,318.6 Q 135.1,322.8 132.3,330.8" stroke="#161A17" stroke-width="2.6" fill="none" stroke-linecap="round"/>
  <path d="M 127.8,301.0 Q 112.4,304.2 101.9,316.0" stroke="#161A17" stroke-width="2.6" fill="none" stroke-linecap="round"/>
  <path d="M 120.0,279.5 Q 111.6,277.9 104.2,282.2" stroke="#161A17" stroke-width="2.6" fill="none" stroke-linecap="round"/>
  <path d="M 120.0,256.5 Q 106.1,249.0 90.5,251.3" stroke="#161A17" stroke-width="2.6" fill="none" stroke-linecap="round"/>
  <path d="M 127.8,235.0 Q 122.4,228.4 114.0,227.0" stroke="#161A17" stroke-width="2.6" fill="none" stroke-linecap="round"/>
  <path d="M 142.6,217.4 Q 136.8,202.7 123.3,194.5" stroke="#161A17" stroke-width="2.6" fill="none" stroke-linecap="round"/>
  <path d="M 162.4,206.0 Q 162.5,197.4 157.0,190.9" stroke="#161A17" stroke-width="2.6" fill="none" stroke-linecap="round"/>
  <path d="M 222.0,219.1 L 223.5,218.7 L 225.1,218.4 L 226.7,218.0 L 228.3,217.8 L 229.9,217.5 L 231.5,217.3 L 233.1,217.2 L 234.8,217.1 L 236.4,217.0 L 238.0,217.0 L 239.6,217.0 L 241.2,217.1 L 242.9,217.2 L 244.5,217.3 L 246.1,217.5 L 247.7,217.8 L 249.3,218.0 L 250.9,218.4 L 252.5,218.7 L 254.0,219.1 L 255.6,219.6 L 257.2,220.0 L 258.7,220.6 L 260.2,221.1 L 261.7,221.7 L 263.2,222.4 L 264.7,223.0 L 266.1,223.8 L 267.6,224.5 L 269.0,225.3 L 270.4,226.1 L 271.8,227.0 L 273.1,227.9 L 274.4,228.8 L 275.7,229.8 L 277.0,230.8 L 278.3,231.9 L 279.5,232.9 L 280.7,234.0 L 281.8,235.2 L 283.0,236.3 L 284.1,237.5 L 285.1,238.7 L 286.2,240.0 L 287.2,241.3 L 288.2,242.6 L 289.1,243.9 L 290.0,245.2 L 290.9,246.6 L 291.7,248.0 L 292.5,249.4 L 293.2,250.9 L 294.0,252.3 L 294.6,253.8 L 295.3,255.3 L 295.9,256.8 L 296.4,258.3 L 297.0,259.8 L 297.4,261.4 L 297.9,263.0 L 298.3,264.5 L 298.6,266.1 L 299.0,267.7 L 299.2,269.3 L 299.5,270.9 L 299.7,272.5 L 299.8,274.1 L 299.9,275.8 L 300.0,277.4 L 300.0,279.0 L 300.0,280.6 L 299.9,282.2 L 299.8,283.9 L 299.7,285.5 L 299.5,287.1 L 299.2,288.7 L 299.0,290.3 L 298.6,291.9 L 298.3,293.5 L 297.9,295.0 L 297.4,296.6 L 297.0,298.2 L 296.4,299.7 L 295.9,301.2 L 295.3,302.7 L 294.6,304.2 L 294.0,305.7 L 293.2,307.1 L 292.5,308.6 L 291.7,310.0 L 290.9,311.4 L 290.0,312.8 L 289.1,314.1 L 288.2,315.4 L 287.2,316.7 L 286.2,318.0 L 285.1,319.3 L 284.1,320.5 L 283.0,321.7 L 281.8,322.8 L 280.7,324.0 L 279.5,325.1 L 278.3,326.1 L 277.0,327.2 L 275.7,328.2 L 274.4,329.2 L 273.1,330.1 L 271.8,331.0 L 270.4,331.9 L 269.0,332.7 L 267.6,333.5 L 266.1,334.2 L 264.7,335.0 L 263.2,335.6 L 261.7,336.3 L 260.2,336.9 L 258.7,337.4 L 257.2,338.0 L 255.6,338.4 L 254.0,338.9 L 252.5,339.3 L 250.9,339.6 L 249.3,340.0 L 247.7,340.2 L 246.1,340.5 L 244.5,340.7 L 242.9,340.8 L 241.2,340.9 L 239.6,341.0 L 238.0,341.0 L 236.4,341.0 L 234.8,340.9 L 233.1,340.8 L 231.5,340.7 L 229.9,340.5 L 228.3,340.2 L 226.7,340.0 L 225.1,339.6 L 223.5,339.3 L 222.0,338.9 L 220.4,338.4 L 218.8,338.0 L 217.3,337.4 L 215.8,336.9 L 214.3,336.3 L 212.8,335.6 L 211.3,335.0 L 209.9,334.2 L 208.4,333.5 L 207.0,332.7 L 205.6,331.9 L 204.2,331.0 L 202.9,330.1 L 201.6,329.2 L 200.3,328.2 L 199.2,327.3 L 200.8,326.9 L 202.3,326.5 L 203.9,326.0 L 205.4,325.5 L 206.9,324.9 L 208.3,324.4 L 209.8,323.7 L 211.3,323.1 L 212.7,322.4 L 214.1,321.6 L 215.5,320.8 L 216.9,320.0 L 218.2,319.2 L 219.6,318.3 L 220.9,317.4 L 222.1,316.4 L 223.4,315.4 L 224.6,314.4 L 225.8,313.3 L 227.0,312.2 L 228.1,311.1 L 229.2,310.0 L 230.3,308.8 L 231.4,307.6 L 232.4,306.4 L 233.4,305.1 L 234.4,303.9 L 235.3,302.6 L 236.2,301.2 L 237.0,299.9 L 237.8,298.5 L 238.6,297.1 L 239.4,295.7 L 240.1,294.3 L 240.7,292.8 L 241.4,291.3 L 241.9,289.9 L 242.5,288.4 L 243.0,286.9 L 243.5,285.3 L 243.9,283.8 L 244.3,282.2 L 244.7,280.7 L 245.0,279.1 L 245.2,277.5 L 245.5,276.0 L 245.7,274.4 L 245.8,272.8 L 245.9,271.2 L 246.0,269.6 L 246.0,268.0 L 246.0,266.4 L 245.9,264.8 L 245.8,263.2 L 245.7,261.6 L 245.5,260.0 L 245.2,258.5 L 245.0,256.9 L 244.7,255.3 L 244.3,253.8 L 243.9,252.2 L 243.5,250.7 L 243.0,249.1 L 242.5,247.6 L 241.9,246.1 L 241.4,244.7 L 240.7,243.2 L 240.1,241.7 L 239.4,240.3 L 238.6,238.9 L 237.8,237.5 L 237.0,236.1 L 236.2,234.8 L 235.3,233.4 L 234.4,232.1 L 233.4,230.9 L 232.4,229.6 L 231.4,228.4 L 230.3,227.2 L 229.2,226.0 L 228.1,224.9 L 227.0,223.8 L 225.8,222.7 L 224.6,221.6 L 223.4,220.6 L 222.1,219.6 Z" fill="#161A17"/>

  <g stroke="#F5F6F3" stroke-width="1.5" fill="none" stroke-linecap="round" stroke-linejoin="round">
    <polyline points="276,244 286,254 286,268 280,274 288,282 288,298 280,306"/>
  </g>
  <g fill="#F5F6F3">
    <circle cx="276" cy="244" r="2.5"/>
    <circle cx="286" cy="268" r="2.5"/>
    <circle cx="288" cy="298" r="2.5"/>
    <circle cx="280" cy="306" r="2.5"/>
  </g>
  <path d="M 293,253.2 L 293.84,255.16 L 295.8,256 L 293.84,256.84 L 293,258.8 L 292.16,256.84 L 290.2,256 L 292.16,255.16 Z" fill="#F5F6F3"/>
  <path d="M 264,297.7 L 264.69,299.31 L 266.3,300 L 264.69,300.69 L 264,302.3 L 263.31,300.69 L 261.7,300 L 263.31,299.31 Z" fill="#F5F6F3"/>
  <path d="M 287,310.0 L 287.6,311.4 L 289.0,312 L 287.6,312.6 L 287,314.0 L 286.4,312.6 L 285.0,312 L 286.4,311.4 Z" fill="#F5F6F3"/>
  <circle cx="185" cy="268" r="56" fill="none" stroke="#161A17" stroke-width="3.4"/>
  <circle cx="185" cy="268" r="48" fill="none" stroke="#161A17" stroke-width="1.1"/>
  <text x="210" y="412" text-anchor="middle" font-family="'IBM Plex Mono', monospace"
        font-size="19" letter-spacing="6" fill="#161A17">PUERARI·LABS</text>
  <text x="210" y="436" text-anchor="middle" font-family="'IBM Plex Mono', monospace"
        font-size="9.5" letter-spacing="3.5" fill="#676D67">EMBEDDED HARDWARE · CURITIBA · EST. 2026</text>
</svg>